Coordinates
version=1
nRows=8
nColumns=40
inDegrees=yes

Units are S.I. units (second, meters, Newtons, ...)
Angles are in degrees.

endheader
time	pelvis_tilt	pelvis_list	pelvis_rotation	pelvis_tx	pelvis_ty	pelvis_tz	hip_flexion_r	hip_adduction_r	hip_rotation_r	knee_angle_r	knee_angle_r_beta	ankle_angle_r	subtalar_angle_r	mtp_angle_r	hip_flexion_l	hip_adduction_l	hip_rotation_l	knee_angle_l	knee_angle_l_beta	ankle_angle_l	subtalar_angle_l	mtp_angle_l	lumbar_extension	lumbar_bending	lumbar_rotation	arm_flex_r	arm_add_r	arm_rot_r	elbow_flex_r	pro_sup_r	wrist_flex_r	wrist_dev_r	arm_flex_l	arm_add_l	arm_rot_l	elbow_flex_l	pro_sup_l	wrist_flex_l	wrist_dev_l
     12.88000000	     -3.95508991	     -8.11140494	      1.05986071	      1.02472463	      0.91688033	      0.48343969	     -0.76200290	      7.22140382	    -16.46217606	     10.71104360	     10.71104360	     17.94610520	      8.32136923	     -2.40123458	     35.87852869	    -12.84729100	     -2.88639000	     20.82681401	     20.82681401	      4.70044557	     -8.27463464	     12.90840329	    -11.88417743	      8.05783440	      4.82640733	     55.07096983	    -13.00860716	      3.19226746	     97.01250629	     44.20994369	      0.00000000	      0.00000000	    -19.17267355	     -6.38962738	      2.07725937	     25.94519663	     45.87843625	      0.00000000	      0.00000000
     12.89171429	     -3.89498913	     -8.08881017	      0.94288652	      1.02625203	      0.91525505	      0.48179987	     -1.44280329	      7.07307266	    -16.15253748	     10.88360397	     10.88360397	     18.54935538	      8.17161351	     -2.42453235	     35.47466499	    -12.72665105	     -3.29951769	     21.63985571	     21.63985571	      4.31481278	     -9.24766633	     12.68710875	    -11.58135535	      7.97425780	      4.40336140	     55.42013907	    -12.52554009	      3.40213342	     98.53762773	     44.16524295	      0.00000000	      0.00000000	    -20.22139869	     -6.21323835	      2.24308798	     25.57894052	     45.82957738	      0.00000000	      0.00000000
     12.90342857	     -3.89347087	     -8.04413349	      0.78915397	      1.02787821	      0.91352314	      0.48012301	     -2.01769795	      6.90400569	    -15.63994529	     11.17277395	     11.17277395	     19.44480100	      7.73081091	     -1.61635695	     34.98166156	    -12.52121956	     -3.30886804	     22.27472627	     22.27472627	      3.10568971	    -10.89300214	     10.91608095	    -11.32460177	      7.78856266	      4.61622650	     55.00834411	    -13.13254179	      3.66612748	    102.41184254	     44.08652049	      0.00000000	      0.00000000	    -21.10299374	     -6.28938346	      2.80462697	     25.93241209	     45.70534704	      0.00000000	      0.00000000
     12.91514286	     -3.84813314	     -7.98465328	      0.66828812	      1.02954230	      0.91183223	      0.47830100	     -2.61197991	      6.67938569	    -15.30274493	     11.50345756	     11.50345756	     20.09794817	      7.47767952	     -1.52439308	     34.65048222	    -12.37286215	     -3.37445257	     23.38645202	     23.38645202	      2.72160236	    -11.97038023	     10.38523613	    -11.04057286	      7.63517892	      4.11136854	     54.97498033	    -12.68324053	      3.92105820	    104.33468868	     44.03315221	      0.00000000	      0.00000000	    -21.94836845	     -6.10803222	      3.01406820	     25.65843735	     45.65417763	      0.00000000	      0.00000000
     12.92685714	     -3.83101438	     -7.84339029	      0.48839719	      1.03122811	      0.91031592	      0.47641295	     -3.10806015	      6.35166027	    -14.74057854	     11.97549589	     11.97549589	     20.96300930	      7.00012584	     -0.64856469	     34.23390944	    -12.13222744	     -3.30024015	     24.29964971	     24.29964971	      1.87475489	    -13.38235969	      8.66781875	    -10.80276512	      7.35582820	      4.45519306	     54.26120704	    -13.56756959	      3.88255276	    107.77972486	     43.98294765	      0.00000000	      0.00000000	    -22.31227615	     -6.24715370	      3.46056099	     25.84459195	     45.57216638	      0.00000000	      0.00000000
     12.93857143	     -3.64574546	     -7.60380624	      0.33793315	      1.03302306	      0.90930036	      0.47434161	     -3.83491977	      5.88651830	    -14.45159894	     12.33145828	     12.33145828	     21.39501910	      6.80764372	     -0.73434987	     33.73709772	    -11.86858301	     -3.39246902	     25.44994695	     25.44994695	      2.00551479	    -14.07245320	      8.38879335	    -10.60254211	      6.96448165	      4.14742094	     53.83806661	    -13.48281345	      3.99641765	    108.36754604	     43.96250863	      0.00000000	      0.00000000	    -22.85298761	     -6.16031209	      3.50220221	     25.61660845	     45.55612939	      0.00000000	      0.00000000
     12.95028571	     -3.63632085	     -7.44392973	      0.23261844	      1.03430186	      0.90822020	      0.47219136	     -3.87523456	      5.46553350	    -13.70918774	     13.55667302	     13.55667302	     22.01133696	      5.52678042	     -0.31226954	     33.53073252	    -11.56957367	     -3.06319694	     26.54350993	     26.54350993	      1.80639871	    -15.25328484	      7.51041810	    -10.51594249	      6.71091476	      4.27703538	     52.60859487	    -14.18857838	      4.21604172	    112.76652127	     43.85707929	      0.00000000	      0.00000000	    -22.82378654	     -6.21236642	      3.59576894	     25.67211418	     45.54790719	      0.00000000	      0.00000000
     12.96200000	     -3.56742269	     -7.20698446	      0.11693189	      1.03551547	      0.90758741	      0.46989099	     -3.94901308	      4.90039399	    -13.28605348	     14.81288375	     14.81288375	     22.38320003	      4.77820287	     -0.46376842	     33.28433758	    -11.27012785	     -2.99081062	     27.68270018	     27.68270018	      2.21321524	    -15.83863361	      7.04055782	    -10.38888378	      6.36321083	      3.80597444	     51.72950700	    -14.04386211	      4.42394241	    114.55760486	     43.80591647	      0.00000000	      0.00000000	    -22.87772556	     -6.09247753	      3.65857130	     25.49121574	     45.54052845	      0.00000000	      0.00000000
